<?xml version="1.0" encoding="UTF-8" standalone="no"?>
<!-- Created with Inkscape (http://www.inkscape.org/) -->

<svg
   width="210mm"
   height="297mm"
   viewBox="0 0 210 297"
   version="1.1"
   id="svg5"
   inkscape:version="1.1 (c68e22c387, 2021-05-23)"
   sodipodi:docname="Icons.svg"
   xmlns:inkscape="http://www.inkscape.org/namespaces/inkscape"
   xmlns:sodipodi="http://sodipodi.sourceforge.net/DTD/sodipodi-0.dtd"
   xmlns="http://www.w3.org/2000/svg"
   xmlns:svg="http://www.w3.org/2000/svg">
  <sodipodi:namedview
     id="namedview7"
     pagecolor="#505050"
     bordercolor="#ffffff"
     borderopacity="1"
     inkscape:pageshadow="0"
     inkscape:pageopacity="0"
     inkscape:pagecheckerboard="1"
     inkscape:document-units="mm"
     showgrid="false"
     inkscape:zoom="0.52410025"
     inkscape:cx="100.17168"
     inkscape:cy="298.607"
     inkscape:window-width="1920"
     inkscape:window-height="1017"
     inkscape:window-x="-8"
     inkscape:window-y="117"
     inkscape:window-maximized="1"
     inkscape:current-layer="layer1" />
  <defs
     id="defs2" />
  <g
     inkscape:label="Layer 1"
     inkscape:groupmode="layer"
     id="layer1">
    <path
       id="path948"
       style="fill:#000000;stroke-width:0.264583"
       d="m 36.321516,36.38794 c -0.47599,0.0017 -0.95737,0.128517 -1.8123,0.382408 -1.68434,0.50019 -3.30784,2.018906 -3.75532,3.512447 -0.3059,1.02099 -0.34265,1.046014 -1.71876,1.160134 -2.58756,0.21458 -4.80148,2.350024 -5.07928,4.899443 -0.10689,0.980901 -0.33596,1.4561 -1.02939,2.13682 -1.177901,1.15629 -1.6808,2.433947 -1.673801,4.250389 0.0064,1.62987 0.633611,3.299796 1.544091,4.109825 0.34454,0.306531 0.56857,0.824897 0.57258,1.322917 0.0233,3.28649 3.89678,6.025488 7.34994,5.197099 1.25945,-0.302141 1.40732,-0.280879 2.50475,0.362252 0.64139,0.37588 1.35391,0.683162 1.58337,0.683162 0.95026,0 0.92903,6.110152 -0.0351,10.120312 l -0.493,2.050521 h 3.67006 c 2.01863,0 3.67058,-0.03588 3.67058,-0.07958 0,-0.04375 -0.23559,-1.145077 -0.52348,-2.447396 -0.951,-4.30195 -0.63951,-7.017901 0.99219,-8.649602 l 1.0573,-1.057299 1.38803,0.46147 c 3.25058,1.07968 6.48957,-0.460647 7.59746,-3.613216 0.31464,-0.895281 0.69883,-1.453377 1.16944,-1.698088 1.17179,-0.609279 2.53901,-2.435595 2.87631,-3.841625 0.3559,-1.483529 0.0423,-3.323976 -0.78031,-4.578017 -0.36987,-0.563798 -0.43318,-0.952156 -0.27182,-1.667597 0.61352,-2.72029 -1.29252,-5.914699 -4.01939,-6.73654 -0.66196,-0.199509 -1.22146,-0.654767 -1.78129,-1.449007 -1.50386,-2.133539 -3.896,-3.015157 -6.41149,-2.362647 l -1.40405,0.364321 -1.0325,-1.032497 c -0.66501,-0.665009 -1.51017,-1.17439 -2.37401,-1.43092 -0.83412,-0.247734 -1.30478,-0.371223 -1.78077,-0.369488 z m 3.99613,23.953063 c 0.16986,-5.11e-4 0.5102,0.497276 0.8754,1.295011 0.38026,0.830598 0.69144,1.545233 0.69144,1.588532 0,0.04331 -0.4013,0.326509 -0.89142,0.62942 -1.07644,0.665278 -1.19451,0.674462 -1.41129,0.109553 -0.19408,-0.50577 0.3241,-3.24226 0.68161,-3.599781 0.0155,-0.01546 0.0334,-0.02267 0.0543,-0.02274 z m -4.44985,0.138491 c 0.0349,1.42e-4 0.0859,0.02092 0.15244,0.06201 0.12164,0.07518 0.66582,0.167005 1.20923,0.203604 1.21822,0.08205 1.3326,0.252955 0.94878,1.415934 -0.4046,1.225949 -0.89356,1.160952 -1.70687,-0.226859 -0.57326,-0.978199 -0.77192,-1.455372 -0.60358,-1.454692 z m -1.35909,0.221175 c 0.0935,0 0.23014,0.208362 0.30334,0.463021 0.0732,0.254659 0.21865,0.671383 0.32349,0.926042 0.10487,0.254659 0.0885,0.459269 -0.0362,0.455268 -0.19165,-0.0068 -1.09249,-0.445336 -1.36943,-0.666625 -0.12773,-0.102069 0.58353,-1.177706 0.77877,-1.177706 z" />
  </g>
</svg>
